PathFileType	4	(X/Y/Z)	Patient4_TMGait_0pt3_01_left_28.trc.trc
DataRate	CameraRate	NumFrames	NumMarkers	Units	OrigDataRate	OrigDataStartFrame	OrigNumFrames
51.094890510949	51.094890510949	4	33	mm	51.094890510949	53	       141
Frame#	Time	Sacral			L.Shoulder			Chest			R.Shoulder			Neck			R.ASIS			L.ASIS			R.Thigh.Superior			R.Thigh.Lateral			R.Thigh.Inferior			R.Patella			L.Thigh.Superior			L.Thigh.Lateral			L.Thigh.Inferior			L.Patella			L.Shank.Superior			L.Shank.Lateral			L.Shank.Inferior			R.Shank.Superior			R.Shank.Lateral			R.Shank.Inferior			R.Heel			R.Midfoot.Superior			R.Midfoot.Lateral			R.Toe			L.Heel			L.Midfoot.Lateral			L.Midfoot.Superior			L.Toe			L.Elbow			L.Wrist			R.Elbow			R.Wrist			
		X1	Y1	Z1	X2	Y2	Z2	X3	Y3	Z3	X4	Y4	Z4	X5	Y5	Z5	X6	Y6	Z6	X7	Y7	Z7	X8	Y8	Z8	X9	Y9	Z9	X10	Y10	Z10	X11	Y11	Z11	X12	Y12	Z12	X13	Y13	Z13	X14	Y14	Z14	X15	Y15	Z15	X16	Y16	Z16	X17	Y17	Z17	X18	Y18	Z18	X19	Y19	Z19	X20	Y20	Z20	X21	Y21	Z21	X22	Y22	Z22	X23	Y23	Z23	X24	Y24	Z24	X25	Y25	Z25	X26	Y26	Z26	X27	Y27	Z27	X28	Y28	Z28	X29	Y29	Z29	X30	Y30	Z30	X31	Y31	Z31	X32	Y32	Z32	X33	Y33	Z33	

53	53.797714285714	680.627510062414	998.858186989976	427.490988900736	839.022920709339	1423.190240671317	221.428253839062	951.255515718724	1363.799854300828	379.624343834686	876.880020904339	1445.547858377983	553.619054054766	833.299715840560	1492.862501283584	375.829947224886	914.211961431553	942.849931865840	536.640452978190	893.011275747289	959.865318057301	263.638016233053	970.639196020436	746.147946971692	510.211285471548	906.248957243924	631.224385768973	579.035834704798	987.024691676848	579.229353424677	498.319490380974	986.375947195998	467.735561787640	521.742350436271	954.657190428155	751.280403402328	302.202693646724	873.814893693744	627.328441743629	250.386989118049	961.379907671881	557.481499278401	318.142835564751	963.995630151259	486.983834860661	330.098770330910	934.482069093538	412.732057140294	325.241059786359	842.439020870595	298.933285949698	277.397555350631	887.778529987966	190.236530616998	354.956138432685	906.489105921986	401.231007863218	531.294482886812	782.966411273335	366.681906567316	589.606522895268	768.613272151649	255.678337462734	544.628247045393	569.188839348186	198.168118019696	505.006091168575	730.035606064422	137.004807766937	567.707518342878	618.945302084385	147.905369962382	591.067664024498	785.263900354362	31.802370085531	615.080108434452	754.578088177694	37.456201536969	399.547552852800	828.641646099598	34.947664711320	318.422337987268	911.537435726067	96.304997383299	345.702378913058	1039.830950908940	47.721128345341	317.463267990306	853.671989207543	1070.485877645837	105.893958028142	945.825124322113	827.205164601792	112.267238563730	944.076703327991	1102.033460600464	676.817875934599	1141.010219934569	938.710427232189	657.641136704013	
54	53.817285714286	678.590055953965	996.049160159643	423.489771506392	840.194071098097	1422.330823682394	221.132025274415	949.989614216604	1361.825753730530	380.593845817463	873.132025769262	1441.887706336998	554.334755127740	832.557250183545	1491.123528601681	376.246588085829	911.459574569462	941.541785266533	535.071494393282	892.985475525006	958.189526687729	261.855070628893	973.174725883107	747.620161017469	507.606593701371	912.249606873766	631.413219122822	576.282800594346	994.212925544968	581.284935940378	495.152406706444	995.801525346711	468.874897560924	518.765500007438	955.953022316620	750.197864749436	301.554358518324	876.601702433211	625.395883387136	249.625717061003	963.995181494563	556.208711856839	318.540880852173	966.921038301103	485.197468348865	330.828157545603	935.889193968053	410.558110024515	326.066490850397	842.473097779753	298.207642470059	277.447427476616	884.590101980659	188.916368958583	355.638741282305	914.945449885825	402.263969879249	528.538375373559	790.314690667638	369.943937091317	586.230124509838	774.450324379609	258.952705033497	541.949134154636	574.538383793867	205.495823841100	501.308817803864	733.723114988664	140.332483110266	565.300892807170	622.503317849181	154.038437235427	587.860590699637	786.017950305242	32.183733989537	613.395045694064	748.763042006898	37.503357967755	399.541262724794	822.871754443936	35.015729368507	318.485893135431	905.964325417301	96.002256613950	346.107321962631	1034.157680100869	47.074825325410	317.538942470018	862.800674930155	1070.868700057181	102.723641098680	966.225836134625	832.093442736931	109.882980870929	928.280347825400	1094.337334825298	674.790171401285	1107.436470411195	910.818364547428	661.993798963750	
55	53.836857142857	676.623625666221	993.364231601077	419.566945678732	841.677286404701	1421.554511386243	221.064664924864	948.885808980174	1359.887296512642	381.838460220853	869.363841523094	1438.251043074308	555.210195087288	831.945517448046	1489.434187946739	376.854063322360	908.765885713432	940.307755786676	533.767210865873	893.056955855774	956.526453263722	260.313403112291	975.465650866259	749.217631731766	505.301732068696	917.976040414931	631.875115484776	573.923302159197	1001.010057108198	583.577454151910	492.397196707385	1004.910043598622	470.421940643656	516.229573458295	957.080601776709	749.052469743444	300.979287977056	879.003775020053	623.510541240203	248.909099509544	966.199904568213	554.896926336188	318.916728115946	969.389640127505	483.433382028470	331.514583842529	936.889269363791	408.426329777906	326.823948247400	842.135089707347	297.478381225342	277.511668525001	881.202958160354	187.633417536539	356.230759088457	923.386270682992	403.500051842431	526.212083957734	797.821094656408	372.741169226260	583.211170494014	781.054062476605	261.681030231340	539.593400849151	580.803050726115	210.739980885095	498.159333523811	739.002901203091	143.179309387123	563.104604085471	627.640993326839	158.454696683242	584.995854933761	789.474238807998	32.795669374313	611.488014838600	742.938629295294	37.552462533539	399.528328161083	817.098816088451	35.076625295118	318.533014073765	900.377526222042	95.734789891687	346.463333841628	1028.485135072870	46.435635931135	317.600999388967	871.622302131162	1071.521419964365	99.888346165020	986.607023214583	837.941913213810	108.184553080918	912.064784381166	1087.347858689347	672.887254097393	1071.773911766698	885.705718568785	666.175622390644	
56	53.856428571429	674.777427253358	990.993100221936	415.760077988075	843.482707692765	1420.990992295730	221.228185120472	947.969745530250	1358.141151071696	383.348003999897	865.620536499887	1434.845430983484	556.212381509422	831.486263090125	1487.937610217344	377.622191876011	906.174134345698	939.256116521194	532.710966989562	893.234817593398	955.020430637488	259.017055077028	977.432191399073	750.979477497636	503.352540796900	923.245545267219	632.672700613524	572.034932458466	1007.246748352177	586.119609882229	490.173767548261	1013.495930499566	472.435709276745	514.274938615119	957.889280533231	747.884389283269	300.434263092339	880.739627845161	621.786765730630	248.198416099217	967.660698273959	553.587976299122	319.194981538623	971.018569547560	481.758161053017	332.073091394028	937.170208799051	406.445004756005	327.431045952535	841.179381268951	296.781618415392	277.544885937009	877.506771949620	186.453404537578	356.684803624683	931.680116484507	404.964934331136	524.440190169985	805.393105813665	374.942475226401	580.679608345213	788.482741695873	263.706076837617	537.687157265637	588.118424358636	213.470410640511	495.645343172444	746.081444981233	145.347765775473	561.272468108413	634.533621340605	160.799404443125	582.591954602048	795.999537500169	33.557430783059	609.559790535773	737.098099648346	37.602878211487	399.508553538892	811.314829655211	35.126657229131	318.560880038915	894.761580925398	95.506356339907	346.750116094151	1022.801597393273	45.825779018971	317.647151960709	880.212127238037	1072.527879133450	97.410470991580	1006.871431536586	844.841551610539	107.124237627717	895.305363680293	1081.367534593225	671.256143398873	1034.550165790731	864.051291717917	670.137647683171	
